<svg xmlns="http://www.w3.org/2000/svg" width="1536" height="1024" viewBox="0 0 1536 1024"><defs><linearGradient id="g" x1="0" x2="1" y1="0" y2="1"><stop stop-color="#071426"/><stop offset=".55" stop-color="#101827"/><stop offset="1" stop-color="#0b2a3a"/></linearGradient><style>.h{font:700 74px Georgia,serif;fill:#f5efe2}.s{font:500 28px Arial,sans-serif;fill:#91a4b8}.m{font:700 34px Arial,sans-serif;fill:#f4b04a}.l{stroke:#2b8cff;stroke-width:2;opacity:.55}.a{fill:#2b8cff;opacity:.18}.b{fill:#f4b04a;opacity:.9}.box{fill:#101d2f;stroke:#28415e;stroke-width:2;rx:20}.t{font:600 22px Arial,sans-serif;fill:#f5efe2}.p{font:18px Arial,sans-serif;fill:#9fb1c5}</style></defs><rect width="1536" height="1024" fill="url(#g)"/><text x="80" y="90" class="m">Data Visualization Style Frame</text><rect x="80" y="140" width="640" height="340" class="box"/><text x="120" y="195" class="t">Revenue growth</text><polyline points="130,410 240,360 350,300 460,250 580,185 660,165" fill="none" stroke="#2b8cff" stroke-width="7"/><rect x="800" y="140" width="650" height="340" class="box"/><text x="840" y="195" class="t">Funding rounds</text><line x1="880" y1="330" x2="1360" y2="330" stroke="#91a4b8" stroke-width="4"/><circle cx="900" cy="330" r="18" fill="#f4b04a"/><text x="880" y="395" class="p">R1</text><circle cx="1010" cy="330" r="21" fill="#f4b04a"/><text x="990" y="395" class="p">R2</text><circle cx="1120" cy="330" r="24" fill="#f4b04a"/><text x="1100" y="395" class="p">R3</text><circle cx="1230" cy="330" r="27" fill="#f4b04a"/><text x="1210" y="395" class="p">R4</text><circle cx="1340" cy="330" r="30" fill="#f4b04a"/><text x="1320" y="395" class="p">R5</text><rect x="80" y="540" width="640" height="340" class="box"/><text x="120" y="595" class="t">Market share</text><rect x="150" y="645" width="360" height="28" fill="#2b8cff" opacity="0.85"/><rect x="150" y="695" width="305" height="28" fill="#2b8cff" opacity="0.76"/><rect x="150" y="745" width="250" height="28" fill="#2b8cff" opacity="0.6699999999999999"/><rect x="150" y="795" width="195" height="28" fill="#2b8cff" opacity="0.58"/><rect x="150" y="845" width="140" height="28" fill="#2b8cff" opacity="0.49"/><rect x="800" y="540" width="650" height="340" class="box"/><text x="840" y="595" class="t">EV/Sales vs growth</text><circle cx="900" cy="790" r="13" fill="#3fbf7f"/><circle cx="985" cy="745" r="13" fill="#3fbf7f"/><circle cx="1070" cy="700" r="13" fill="#3fbf7f"/><circle cx="1155" cy="655" r="13" fill="#3fbf7f"/><circle cx="1240" cy="790" r="13" fill="#3fbf7f"/><circle cx="1325" cy="745" r="13" fill="#3fbf7f"/></svg>