<svg xmlns="http://www.w3.org/2000/svg" width="1536" height="1024" viewBox="0 0 1536 1024"><defs><linearGradient id="g" x1="0" x2="1" y1="0" y2="1"><stop stop-color="#071426"/><stop offset=".55" stop-color="#101827"/><stop offset="1" stop-color="#0b2a3a"/></linearGradient><style>.h{font:700 74px Georgia,serif;fill:#f5efe2}.s{font:500 28px Arial,sans-serif;fill:#91a4b8}.m{font:700 34px Arial,sans-serif;fill:#f4b04a}.l{stroke:#2b8cff;stroke-width:2;opacity:.55}.a{fill:#2b8cff;opacity:.18}.b{fill:#f4b04a;opacity:.9}.box{fill:#101d2f;stroke:#28415e;stroke-width:2;rx:20}.t{font:600 22px Arial,sans-serif;fill:#f5efe2}.p{font:18px Arial,sans-serif;fill:#9fb1c5}</style></defs><rect width="1536" height="1024" fill="url(#g)"/><g opacity=".7"><path class="l" d="M80 120 C 180 360,480 450,1450 180"/><path class="l" d="M170 120 C 215 360,492 450,1420 225"/><path class="l" d="M260 120 C 250 360,504 450,1390 270"/><path class="l" d="M350 120 C 285 360,516 450,1360 315"/><path class="l" d="M440 120 C 320 360,528 450,1330 360"/><path class="l" d="M530 120 C 355 360,540 450,1300 405"/><path class="l" d="M620 120 C 390 360,552 450,1270 450"/><path class="l" d="M710 120 C 425 360,564 450,1240 495"/><path class="l" d="M800 120 C 460 360,576 450,1210 540"/><path class="l" d="M890 120 C 495 360,588 450,1180 585"/><path class="l" d="M980 120 C 530 360,600 450,1150 630"/><path class="l" d="M1070 120 C 565 360,612 450,1120 675"/></g><circle cx="1130" cy="310" r="210" class="a"/><circle cx="1190" cy="360" r="8" class="b"/><path d="M960 470 l130-210 240 86 68 210-220 136z" fill="none" stroke="#2b8cff" stroke-width="4" opacity=".75"/><text x="96" y="230" class="m">FIRST DRAFT INVESTOR BRIEF</text><text x="96" y="345" class="h">Top 10 AI Companies</text><text x="96" y="435" class="h">to Invest in — H2 2026</text><text x="100" y="510" class="s">Compute bottlenecks • model economics • application-layer breakouts • regulation</text></svg>