<svg xmlns="http://www.w3.org/2000/svg" width="1536" height="1024" viewBox="0 0 1536 1024"><defs><linearGradient id="g" x1="0" x2="1" y1="0" y2="1"><stop stop-color="#071426"/><stop offset=".55" stop-color="#101827"/><stop offset="1" stop-color="#0b2a3a"/></linearGradient><style>.h{font:700 74px Georgia,serif;fill:#f5efe2}.s{font:500 28px Arial,sans-serif;fill:#91a4b8}.m{font:700 34px Arial,sans-serif;fill:#f4b04a}.l{stroke:#2b8cff;stroke-width:2;opacity:.55}.a{fill:#2b8cff;opacity:.18}.b{fill:#f4b04a;opacity:.9}.box{fill:#101d2f;stroke:#28415e;stroke-width:2;rx:20}.t{font:600 22px Arial,sans-serif;fill:#f5efe2}.p{font:18px Arial,sans-serif;fill:#9fb1c5}</style></defs><rect width="1536" height="1024" fill="url(#g)"/><text x="80" y="90" class="m">Color + Typography System</text><rect x="90" y="160" width="160" height="160" rx="18" fill="#071426"/><text x="90" y="355" class="p">Deep navy</text><rect x="295" y="160" width="160" height="160" rx="18" fill="#101827"/><text x="295" y="355" class="p">Graphite</text><rect x="500" y="160" width="160" height="160" rx="18" fill="#f5efe2"/><text x="500" y="355" class="p">Warm ivory</text><rect x="705" y="160" width="160" height="160" rx="18" fill="#2b8cff"/><text x="705" y="355" class="p">AI blue</text><rect x="910" y="160" width="160" height="160" rx="18" fill="#f4b04a"/><text x="910" y="355" class="p">Signal amber</text><rect x="1115" y="160" width="160" height="160" rx="18" fill="#d85b53"/><text x="1115" y="355" class="p">Risk red</text><rect x="1320" y="160" width="160" height="160" rx="18" fill="#3fbf7f"/><text x="1320" y="355" class="p">Growth green</text><text x="100" y="560" style="font:700 80px Georgia,serif;fill:#f5efe2">Editorial serif for judgment</text><text x="105" y="640" style="font:400 34px Arial,sans-serif;fill:#91a4b8">Neutral sans for metrics, source notes, and risk language</text><path d="M100 720 h900" stroke="#2b8cff" stroke-width="6"/><path d="M100 765 h650" stroke="#f4b04a" stroke-width="6"/></svg>